<?xml version="1.0" standalone="no"?>
<!DOCTYPE svg PUBLIC "-//W3C//DTD SVG 20010904//EN"
 "http://www.w3.org/TR/2001/REC-SVG-20010904/DTD/svg10.dtd">
<svg version="1.0" xmlns="http://www.w3.org/2000/svg"
 width="256.000000pt" height="214.000000pt" viewBox="0 0 256.000000 214.000000"
 preserveAspectRatio="xMidYMid meet">

<g transform="translate(0.000000,214.000000) scale(0.100000,-0.100000)"
fill="#000000" stroke="none">
<path d="M1375 1675 c-22 -8 -56 -32 -76 -53 -50 -53 -64 -118 -48 -222 7 -43
9 -100 5 -132 -6 -47 -13 -62 -51 -101 -57 -60 -170 -113 -301 -143 -57 -13
-118 -31 -136 -40 -52 -26 -156 -140 -168 -182 -28 -102 2 -149 105 -166 43
-7 180 27 261 64 52 24 153 50 194 50 64 0 153 -49 275 -151 151 -126 294
-150 416 -70 94 63 208 241 224 354 14 94 -33 180 -126 227 -22 12 -92 34
-157 51 -130 33 -188 65 -199 106 -3 16 1 75 11 133 27 159 4 228 -89 271 -48
22 -86 23 -140 4z"/>
</g>
</svg>
